# AST/ASF file generated using VICON BodyLanguage
# -----------------------------------------------
:version 1.10
:name VICON
:units
  mass 1.0
  length 0.45
  angle deg
:documentation
   .ast/.asf automatically generated from VICON data using
   VICON BodyBuilder and BodyLanguage model FoxedUp or BRILLIANT.MOD
:root
   order TX TY TZ RX RY RZ
   axis XYZ
   position 0 0 0  
   orientation 0 0 0 
:bonedata
  begin
     id 1 
     name lhipjoint
     direction 0.611804 -0.747784 0.257906 
     length 2.29243 
     axis 0 0 0  XYZ
  end
  begin
     id 2 
     name lfemur
     direction 0.34202 -0.939693 0  
     length 7.31159  
     axis 0 0 20  XYZ
    dof rx ry rz
    limits (-160.0 20.0)
           (-70.0 70.0)
           (-60.0 70.0)
  end
  begin
     id 3 
     name ltibia
     direction 0.34202 -0.939693 0   
     length 7.33391   
     axis 0 0 20   XYZ
    dof rx
    limits (-10.0 170.0)
  end
  begin
     id 4 
     name lfoot
     direction 0.122263 -0.335914 0.933924   
     length 1.76083   
     axis -90 7.62852e-016 20   XYZ
    dof rx rz
    limits (-45.0 90.0)
           (-70.0 20.0)
  end
  begin
     id 5 
     name ltoes
     direction 1.53533e-011 -4.2177e-011 1   
     length 0.879206   
     axis -90 7.62852e-016 20   XYZ
    dof rx
    limits (-90.0 20.0)
  end
  begin
     id 6 
     name rhipjoint
     direction -0.646469 -0.721248 0.248754   
     length 2.37677  
     axis 0 0 0  XYZ 
  end
  begin
     id 7 
     name rfemur
     direction -0.34202 -0.939693 0   
     length 7.18623   
     axis 0 0 -20   XYZ
    dof rx ry rz
    limits (-160.0 20.0)
           (-70.0 70.0)
           (-70.0 60.0)
  end
  begin
     id 8 
     name rtibia
     direction -0.34202 -0.939693 0   
     length 7.36567   
     axis 0 0 -20   XYZ
    dof rx
    limits (-10.0 170.0)
 end
 begin
     id 9 
     name rfoot
     direction -0.126681 -0.348054 0.928876   
     length 1.71902  
     axis -90 -7.62852e-016 -20   XYZ
    dof rx rz
    limits (-45.0 90.0)
           (-20.0 70.0)
  end
  begin
     id 10 
     name rtoes
     direction -1.53551e-011 -4.21898e-011 1   
     length 0.857792   
     axis -90 -7.62852e-016 -20   XYZ
    dof rx
    limits (-90.0 20.0)
  end
  begin
     id 11 
     name lowerback
     direction 0.0106509 0.999778 0.0181844   
     length 2.07668   
     axis 0 0 0   XYZ
    dof rx ry rz
    limits (-20.0 45.0)
           (-30.0 30.0)
           (-30.0 30.0)
  end
  begin
     id 12 
     name upperback
     direction -0.00456018 0.999989 -0.000590935   
     length 2.08011   
     axis 0 0 0   XYZ
    dof rx ry rz
    limits (-20.0 45.0)
           (-30.0 30.0)
           (-30.0 30.0)
  end
  begin
     id 13 
     name thorax
     direction -0.00910382 0.999916 -0.00923765   
     length 2.07397   
     axis 0 0 0   XYZ
    dof rx ry rz
    limits (-20.0 45.0)
           (-30.0 30.0)
           (-30.0 30.0)
  end
  begin
     id 14 
     name lowerneck
     direction 0.00171967 0.99778 0.0665733   
     length 1.67556   
     axis 0 0 0   XYZ
    dof rx ry rz
    limits (-20.0 45.0)
           (-30.0 30.0)
           (-30.0 30.0)
  end
  begin
     id 15 
     name upperneck
     direction -0.0143166 0.991302 -0.130828   
     length 1.68462   
     axis 0 0 0   XYZ
    dof rx ry rz
    limits (-20.0 45.0)
           (-30.0 30.0)
           (-30.0 30.0)
  end
  begin
     id 16
     name head
     direction -0.00606378 0.998665 -0.0512995  
     length 1.69269  
     axis 0 0 0   XYZ
    dof rx ry rz
    limits (-20.0 45.0)
           (-30.0 30.0)
           (-30.0 30.0)
  end
  begin
     id 17 
     name lclavicle
     direction 0.9638 0.179341 0.197297  
     length 4.12888  
     axis 0 0 0   XYZ
    dof ry rz
    limits (-20.0 10.0)
           (0.0 20.0)
  end
  begin
     id 18 
     name lhumerus
     direction 1 -4.48972e-011 -2.47351e-027   
     length 5.01834   
     axis -180 -30 -90   XYZ
    dof rx ry rz
    limits (-60.0 90.0)
           (-90.0 90.0)
           (-90.0 90.0)
  end
  begin
     id 19
     name lradius
     direction 1 -4.48965e-011 1.51591e-026   
     length 3.4869   
     axis -180 -30 -90   XYZ
    dof rx
    limits (-10.0 170.0)
  end
  begin
     id 20
     name lwrist
     direction 1 -4.48957e-011 2.70032e-026   
     length 1.74345   
     axis -1.81515e-014 90 90   XYZ
    dof ry
    limits (-180.0 0.0)
 end
  begin
     id 21 
     name lhand
     direction 1 -4.48951e-011 5.40064e-026   
     length 0.76799   
     axis -3.44607e-014 90 90   XYZ
    dof rx rz
    limits (-90.0 90.0)
           (-45.0 45.0)
  end
  begin
     id 22 
     name lfingers
     direction 1 -4.48971e-011 1.08013e-025   
     length 0.619174   
     axis -6.89214e-014 90 90   XYZ
    dof rx
    limits (0.0 90.0)
  end
  begin
     id 23
     name lthumb
     direction 0.707107 -6.34931e-011 0.707107   
     length 0.889013   
     axis -90 45 2.85299e-015   XYZ
    dof rx rz
    limits (-45.0 45.0)
           (-45.0 45.0)
  end
  begin
     id 24 
     name rclavicle
     direction -0.961409 0.252588 0.109054   
     length 4.04305  
     axis 0 0 0   XYZ 
    dof ry rz
    limits (-10.0 20.0)
           (-20.0 0.0)
  end
  begin
     id 25 
     name rhumerus
     direction -1 -4.4897e-011 1.33872e-017  
     length 4.70164   
     axis -180 30 90   XYZ
    dof rx ry rz
    limits (-90.0 60.0)
           (-90.0 90.0)
           (-90.0 90.0)
  end
  begin
     id 26 
     name rradius
     direction -1 -4.48954e-011 1.83844e-026   
     length 3.49911   
     axis -180 30 90   XYZ
    dof rx
    limits (-10.0 170.0)
  end
  begin
     id 27 
     name rwrist
     direction -1 -4.49008e-011 2.70032e-026   
     length 1.74955   
     axis -1.81515e-014 -90 -90   XYZ
    dof ry
    limits (-180.0 0.0)
  end
  begin
     id 28
     name rhand
     direction -1 -4.48916e-011 5.40064e-026   
     length 0.739335   
     axis -3.44607e-014 -90 -90   XYZ
    dof rx rz
    limits (-90.0 90.0)
           (-45.0 45.0)
  end
  begin
     id 29
     name rfingers
     direction -1 -4.48987e-011 1.08013e-025   
     length 0.596071   
     axis -6.89214e-014 -90 -90   XYZ
    dof rx
    limits (0.0 90.0)
  end
  begin
     id 30
     name rthumb
     direction -0.707107 -6.34935e-011 0.707107   
     length 0.855843   
     axis -90 -45 -2.85299e-015   XYZ
    dof rx rz
    limits (-45.0 45.0)
           (-45.0 45.0)
  end
:hierarchy
  begin
    root lhipjoint rhipjoint lowerback
    lhipjoint lfemur
    lfemur ltibia
    ltibia lfoot
    lfoot ltoes
    rhipjoint rfemur
    rfemur rtibia
    rtibia rfoot
    rfoot rtoes
    lowerback upperback
    upperback thorax
    thorax lowerneck lclavicle rclavicle
    lowerneck upperneck
    upperneck head
    lclavicle lhumerus
    lhumerus lradius
    lradius lwrist
    lwrist lhand lthumb
    lhand lfingers
    rclavicle rhumerus
    rhumerus rradius
    rradius rwrist
    rwrist rhand rthumb
    rhand rfingers
  end

#!OML:ASF I:\salsa\salsa 7_09\Patient 1\Session 1\dancermale.ASF
:FULLY-SPECIFIED
:DEGREES
528
root 3.70208 17.1108 3.19195 -368.525 144.806 -345.451
lowerback 33.8011 -8.23743 20.7589
upperback 5.69336 -1.1201 1.02636
thorax -10.7655 -0.318539 -9.12562
lowerneck -9.7488 0.603338 4.30488
upperneck 34.6054 5.21207 -6.81776
head 13.5816 2.93031 -2.50934
rclavicle -3.88624e-014 -3.57812e-014
rhumerus -20.1136 -12.4504 -49.1391
rradius 56.2072
rwrist -0.65878
rhand -31.5465 0.653134
rfingers 7.12502
rthumb -4.81088 -29.2722
lclavicle -3.88624e-014 -3.57812e-014
lhumerus -46.632 -22.7027 94.1922
lradius 100.767
lwrist 47.6024
lhand -30.2978 32.5138
lfingers 7.12502
lthumb -3.605 422.463
rfemur 12.8466 -13.6277 28.5668
rtibia 17.5245
rfoot -20.2508 -7.97334
rtoes 33.7902
lfemur -5.32415 6.74448 -4.92051
ltibia 65.8376
lfoot -10.8481 13.622
ltoes -21.8395
529
root 3.64479 17.1128 3.31529 -369.122 146.803 -345.125
lowerback 33.9559 -8.80279 21.1113
upperback 5.69298 -1.53481 1.28081
thorax -10.9173 -0.48311 -8.82189
lowerneck -9.65107 0.380185 4.11949
upperneck 34.4746 4.93543 -6.86082
head 13.4763 2.78881 -2.53011
rclavicle -2.94201e-014 -6.36111e-014
rhumerus -20.9389 -12.6469 -49.6876
rradius 56.7182
rwrist -1.16107
rhand -32.6283 -0.0285063
rfingers 7.12502
rthumb -5.85534 -29.9276
lclavicle -2.94201e-014 -6.36111e-014
lhumerus -46.2071 -23.4441 93.9551
lradius 101.843
lwrist 48.3196
lhand -30.5286 33.3711
lfingers 7.12502
lthumb -3.82796 423.316
rfemur 14.0212 -14.4986 28.7833
rtibia 15.6831
rfoot -19.8719 -8.87212
rtoes 35.4043
lfemur -2.8174 7.81572 -3.14977
ltibia 65.3284
lfoot -11.4839 12.8589
ltoes -19.6878
530
root 3.58752 17.1165 3.44 -369.6 148.947 -344.955
lowerback 33.9664 -9.38698 21.4139
upperback 5.54708 -2.05916 1.48531
thorax -11.2117 -0.73529 -8.50512
lowerneck -9.52765 0.200444 3.99536
upperneck 34.4682 4.78369 -6.99249
head 13.4351 2.70812 -2.57985
rclavicle -7.34509e-014 7.7526e-014
rhumerus -22.0667 -12.5648 -50.488
rradius 57.5416
rwrist -1.76365
rhand -32.9794 0.117145
rfingers 7.12502
rthumb -6.19434 -29.7723
lclavicle -7.34509e-014 7.7526e-014
lhumerus -45.6847 -24.0206 93.6693
lradius 102.729
lwrist 49.2316
lhand -30.5564 34.3525
lfingers 7.12502
lthumb -3.85477 424.297
rfemur 14.8188 -15.1645 29.0136
rtibia 13.959
rfoot -19.7225 -10.1221
rtoes 37.0216
lfemur -0.522094 8.81865 -1.45124
ltibia 63.9199
lfoot -11.5633 12.6442
ltoes -17.5217
531
root 3.52581 17.121 3.5585 -370.19 151.147 -345.001
lowerback 33.8924 -9.99694 21.6962
upperback 5.42377 -2.67427 1.57725
thorax -11.4792 -1.02658 -8.2638
lowerneck -9.55914 0.0576786 3.92756
upperneck 34.6054 4.69661 -7.12373
head 13.4982 2.66236 -2.63156
rclavicle -1.88845e-015 3.81667e-014
rhumerus -23.3884 -12.2581 -51.4637
rradius 58.5418
rwrist -2.53773
rhand -32.5921 1.13358
rfingers 7.12502
rthumb -5.82041 -28.7665
lclavicle -1.88845e-015 3.81667e-014
lhumerus -44.8604 -24.6084 93.317
lradius 103.342
lwrist 50.2187
lhand -30.4941 35.4384
lfingers 7.12502
lthumb -3.79459 425.384
rfemur 15.4343 -15.9174 28.9709
rtibia 12.5883
rfoot -19.7032 -11.4782
rtoes 38.0165
lfemur 1.76847 9.61383 -0.0838091
ltibia 61.6543
lfoot -10.9975 13.1055
ltoes -18.0342
532
root 3.46184 17.1229 3.67328 -370.911 153.295 -345.152
lowerback 33.8239 -10.631 21.8906
upperback 5.38484 -3.36156 1.60346
thorax -11.676 -1.32997 -8.01866
lowerneck -9.56955 -0.0129828 3.7253
upperneck 34.5719 4.64375 -7.10332
head 13.4772 2.62171 -2.59208
rclavicle -1.0138e-014 1.20464e-013
rhumerus -24.7493 -11.7537 -52.6759
rradius 59.6503
rwrist -3.36799
rhand -32.9195 1.58846
rfingers 7.12502
rthumb -6.13645 -28.3027
lclavicle -1.0138e-014 1.20464e-013
lhumerus -43.7459 -25.0531 92.9008
lradius 103.653
lwrist 51.2689
lhand -30.471 36.282
lfingers 7.12502
lthumb -3.77231 426.228
rfemur 15.9877 -16.701 28.7244
rtibia 11.5623
rfoot -19.6297 -12.9082
rtoes 38.2382
lfemur 4.27246 10.1496 1.11592
ltibia 58.3738
lfoot -10.9038 13.0803
ltoes -19.5901
533
root 3.39117 17.1232 3.78386 -371.556 155.567 -345.362
lowerback 33.5638 -11.3149 22.1929
upperback 5.33181 -4.15707 1.5412
thorax -11.8559 -1.6916 -7.8777
lowerneck -9.55001 -0.0665194 3.59362
upperneck 34.4864 4.58575 -7.08524
head 13.4276 2.58541 -2.56671
rclavicle -3.22031e-014 4.6118e-014
rhumerus -26.2138 -11.1276 -54.1765
rradius 60.8134
rwrist -4.17717
rhand -34.0393 1.35222
rfingers 7.12502
rthumb -7.21749 -28.5047
lclavicle -3.22031e-014 4.6118e-014
lhumerus -42.493 -25.3914 92.4875
lradius 103.725
lwrist 52.2869
lhand -30.4754 37.2294
lfingers 7.12502
lthumb -3.77659 427.176
rfemur 16.206 -17.4915 28.361
rtibia 10.9477
rfoot -19.91 -14.2388
rtoes 39.1194
lfemur 6.67902 10.1557 1.83706
ltibia 54.1412
lfoot -11.0459 12.4542
ltoes -19.0163
534
root 3.31614 17.1298 3.89331 -372.127 157.902 -345.596
lowerback 33.2131 -12.0047 22.5836
upperback 5.24753 -4.97544 1.42461
thorax -12.0571 -2.07565 -7.82544
lowerneck -9.61216 -0.166005 3.55341
upperneck 34.5374 4.49134 -7.13476
head 13.457 2.54036 -2.59142
rclavicle 2.9122e-014 2.8625e-014
rhumerus -27.8931 -10.4124 -55.8844
rradius 62.0326
rwrist -4.89741
rhand -35.4351 0.952306
rfingers 7.12502
rthumb -8.56464 -28.854
lclavicle 2.9122e-014 2.8625e-014
lhumerus -41.1271 -25.7759 92.1377
lradius 103.545
lwrist 53.2917
lhand -30.5454 38.1468
lfingers 7.12502
lthumb -3.84417 428.092
rfemur 16.1139 -18.2721 27.9173
rtibia 10.7569
rfoot -20.4299 -15.4181
rtoes 40.0576
lfemur 9.09482 9.68195 2.11168
ltibia 49.1643
lfoot -12.5671 12.0443
ltoes -18.1218
535
root 3.2435 17.136 4.00573 -372.509 160.05 -345.702
lowerback 32.7774 -12.6138 22.886
upperback 5.19008 -5.73635 1.41471
thorax -12.173 -2.42004 -7.64369
lowerneck -9.69081 -0.21481 3.44038
upperneck 34.5246 4.49884 -7.25644
head 13.4713 2.51747 -2.61691
rclavicle -2.54444e-014 -3.37934e-014
rhumerus -29.4126 -9.75455 -57.7455
rradius 63.2425
rwrist -5.95014
rhand -36.608 0.854592
rfingers 7.12502
rthumb -9.69642 -28.9022
lclavicle -2.54444e-014 -3.37934e-014
lhumerus -39.5355 -26.0024 91.9056
lradius 103.058
lwrist 54.4831
lhand -30.9703 38.7948
lfingers 7.12502
lthumb -4.2545 428.732
rfemur 15.6249 -18.8812 27.7356
rtibia 11.0487
rfoot -20.6525 -16.7066
rtoes 39.1478
lfemur 11.295 8.93428 2.15357
ltibia 43.8077
lfoot -13.9186 11.752
ltoes -22.9376
536
root 3.17648 17.1336 4.12071 -372.955 161.821 -345.676
lowerback 32.6306 -13.1613 23.0386
upperback 5.14224 -6.36614 1.46115
thorax -12.3388 -2.69432 -7.36681
lowerneck -9.65831 -0.206297 3.30501
upperneck 34.3868 4.54998 -7.32176
head 13.4073 2.51539 -2.60836
rclavicle 4.02539e-014 -4.37326e-015
rhumerus -30.919 -9.23743 -59.7737
rradius 64.4622
rwrist -7.01281
rhand -37.7202 1.26333
rfingers 7.12502
rthumb -10.7694 -28.4406
lclavicle 4.02539e-014 -4.37326e-015
lhumerus -37.9498 -26.0878 91.8326
lradius 102.377
lwrist 55.798
lhand -31.6904 39.2925
lfingers 7.12502
lthumb -4.94976 429.215
rfemur 15.0509 -19.2383 27.7661
rtibia 11.813
rfoot -20.9914 -17.8627
rtoes 38.2887
lfemur 13.7673 7.72476 1.98784
ltibia 38.367
lfoot -15.4329 12.2152
ltoes -26.4962
537
root 3.10947 17.1204 4.23836 -373.503 163.319 -345.464
lowerback 32.7807 -13.7326 23.2917
upperback 5.07925 -6.88087 1.49304
thorax -12.6065 -2.91663 -7.17039
lowerneck -9.58436 -0.17459 3.11493
upperneck 34.2929 4.5926 -7.19422
head 13.3463 2.52883 -2.51488
rclavicle -2.68359e-015 8.34896e-014
rhumerus -32.5139 -8.86775 -61.9341
rradius 65.6716
rwrist -8.13491
rhand -38.8356 1.69584
rfingers 7.12502
rthumb -11.8451 -27.9491
lclavicle -2.68359e-015 8.34896e-014
lhumerus -36.3746 -26.1021 91.8662
lradius 101.493
lwrist 56.6248
lhand -32.1489 39.9748
lfingers 7.12502
lthumb -5.3925 429.886
rfemur 14.5056 -19.6382 27.8575
rtibia 12.8807
rfoot -21.7304 -18.5439
rtoes 39.2929
lfemur 16.2683 5.96211 1.56405
ltibia 33.2685
lfoot -16.7955 13.6628
ltoes -31.5798
538
root 3.04047 17.0908 4.36543 -374.575 164.743 -345.085
lowerback 33.5496 -14.5138 23.4663
upperback 5.14313 -7.42173 1.54081
thorax -12.9466 -3.09433 -6.8447
lowerneck -9.73489 -0.118967 2.85048
upperneck 34.3643 4.71131 -7.05752
head 13.412 2.56351 -2.39538
rclavicle 4.57205e-015 -4.05521e-014
rhumerus -33.8203 -8.50032 -64.0667
rradius 66.6296
rwrist -9.28016
rhand -39.7559 2.23551
rfingers 7.12502
rthumb -12.7324 -27.3563
lclavicle 4.57205e-015 -4.05521e-014
lhumerus -34.5615 -26.1616 91.8798
lradius 100.369
lwrist 57.3249
lhand -32.4907 40.6113
lfingers 7.12502
lthumb -5.72255 430.514
rfemur 14.5145 -20.1948 27.7625
rtibia 14.0742
rfoot -22.4454 -19.1197
rtoes 40.3259
lfemur 19.19 3.02285 0.541893
ltibia 28.195
lfoot -17.4537 15.542
ltoes -34.8335
539
root 2.97437 17.0556 4.49597 -375.736 165.971 -344.537
lowerback 34.4871 -15.332 23.6456
upperback 5.26601 -7.91123 1.61007
thorax -13.2473 -3.21941 -6.49748
lowerneck -9.89366 -0.0536215 2.65963
upperneck 34.34 4.81423 -6.97631
head 13.4386 2.58721 -2.31279
rclavicle -6.36111e-014 3.73715e-014
rhumerus -34.9042 -8.08986 -66.2409
rradius 67.3545
rwrist -10.6339
rhand -41.0517 2.97903
rfingers 7.12502
rthumb -13.9815 -26.5308
lclavicle -6.36111e-014 3.73715e-014
lhumerus -32.5835 -26.0972 91.907
lradius 99.0092
lwrist 58.0045
lhand -32.9765 41.0319
lfingers 7.12502
lthumb -6.1915 430.921
rfemur 14.5641 -20.6988 27.7887
rtibia 15.4753
rfoot -23.0222 -19.6656
rtoes 41.3013
lfemur 21.773 0.105175 -0.352989
ltibia 24.1082
lfoot -18.2674 16.5859
ltoes -35.5388
540
root 2.90929 17.0245 4.62487 -376.706 166.808 -343.953
lowerback 35.3534 -15.9803 23.8914
upperback 5.37343 -8.19455 1.63975
thorax -13.4875 -3.26293 -6.32778
lowerneck -9.91892 -0.0206214 2.64803
upperneck 34.1819 4.82105 -6.96238
head 13.3744 2.58386 -2.30227
rclavicle -1.33186e-014 -4.69132e-014
rhumerus -36.0508 -8.04683 -68.4121
rradius 67.9246
rwrist -11.5109
rhand -42.1961 3.80361
rfingers 7.12502
rthumb -15.084 -25.6268
lclavicle -1.33186e-014 -4.69132e-014
lhumerus -30.5461 -25.65 92.0348
lradius 97.4219
lwrist 58.4567
lhand -33.3622 41.3912
lfingers 7.12502
lthumb -6.56386 431.27
rfemur 14.2729 -21.0966 27.9249
rtibia 17.2741
rfoot -23.1501 -19.9495
rtoes 41.0821
lfemur 23.7588 -2.23822 -1.09905
ltibia 21.136
lfoot -18.6904 17.432
ltoes -36.6413
541
root 2.84417 16.9989 4.75725 -377.506 167.437 -343.523
lowerback 36.8326 -16.7717 24.2798
upperback 4.53973 -8.37061 1.28127
thorax -13.6148 -3.28094 -6.01611
lowerneck -9.77884 0.0130948 2.72393
upperneck 33.9006 4.87924 -7.18624
head 13.2333 2.5902 -2.39362
rclavicle 2.89232e-014 -3.81667e-014
rhumerus -37.1752 -8.04375 -70.5374
rradius 68.3364
rwrist -12.1721
rhand -43.0735 4.61086
rfingers 7.12502
rthumb -15.9291 -24.7541
lclavicle 2.89232e-014 -3.81667e-014
lhumerus -28.5585 -24.9619 92.1479
lradius 95.6407
lwrist 58.7892
lhand -33.2865 41.5657
lfingers 7.12502
lthumb -6.49076 431.446
rfemur 13.6368 -21.4219 27.9671
rtibia 19.2322
rfoot -22.7331 -20.4252
rtoes 38.4197
lfemur 25.2053 -3.98479 -1.78645
ltibia 18.9157
lfoot -19.2804 17.9671
ltoes -36.5579
